<svg width="8" height="8" viewBox="0 0 8 8" fill="none" xmlns="http://www.w3.org/2000/svg">
<path d="M4.00169 4.77063L1.00878 1.77785C0.926569 1.69544 0.81665 1.65011 0.699447 1.65011C0.582179 1.65011 0.472325 1.69544 0.389984 1.77785L0.12787 2.04009C0.0453982 2.12237 -1.79986e-07 2.23235 -1.74863e-07 2.34955C-1.6974e-07 2.46676 0.0453982 2.57661 0.12787 2.65895L3.69119 6.22233C3.77379 6.305 3.88416 6.35027 4.0015 6.34994C4.11935 6.35027 4.22959 6.30507 4.31226 6.22233L7.87213 2.66227C7.9546 2.57993 8 2.47007 8 2.35281C8 2.2356 7.9546 2.12575 7.87213 2.04334L7.61002 1.78116C7.43941 1.61056 7.16169 1.61056 6.99115 1.78116L4.00169 4.77063Z" fill="#29ABE2"/>
</svg>
