<svg width="12" height="12" viewBox="0 0 12 12" fill="none" xmlns="http://www.w3.org/2000/svg">
<path d="M9.37982 5.72339L3.77648 0.120322C3.69629 0.0402196 3.60401 0 3.49986 0C3.39567 0 3.30344 0.0402196 3.2233 0.120322L2.62219 0.721551C2.54192 0.801696 2.50195 0.893759 2.50195 0.998119C2.50195 1.10248 2.54192 1.19454 2.62219 1.27469L7.34765 6.00013L2.62219 10.7257C2.54192 10.8058 2.50195 10.898 2.50195 11.0021C2.50195 11.1064 2.54192 11.1986 2.62219 11.2788L3.22334 11.8798C3.30348 11.96 3.39571 12 3.49991 12C3.60406 12 3.69629 11.9599 3.77648 11.8798L9.37952 6.27669C9.45962 6.19659 9.49972 6.10432 9.49972 6.00013C9.49972 5.89593 9.45992 5.8037 9.37982 5.72339Z" fill="#29ABE2"/>
</svg>
