<svg width="144" height="103" viewBox="0 0 144 103" fill="none" xmlns="http://www.w3.org/2000/svg">
<path d="M95.8744 17.8307L97.4822 16.9834L97.1695 18.7672L98.4647 20.0158L96.6783 20.2834L95.8744 21.8888L95.0706 20.2834L93.2842 20.0158L94.5793 18.7672L94.3113 16.9834L95.8744 17.8307Z" fill="#29ABE2"/>
<path d="M88.2378 34.2417L90.0689 33.2606L89.7116 35.312L91.1853 36.6944L89.1757 37.0066L88.2378 38.835L87.3446 37.0066L85.335 36.6944L86.8087 35.312L86.4514 33.2606L88.2378 34.2417Z" fill="#29ABE2"/>
<path d="M61.2187 39.8161L63.4517 38.612L63.0051 41.1093L64.8361 42.8931L62.3352 43.2499L61.2187 45.5242L60.1022 43.2499L57.5566 42.8931L59.3877 41.1093L58.9411 38.612L61.2187 39.8161Z" fill="#29ABE2"/>
<path d="M97.6167 70.8096L99.4478 69.8286L99.0905 71.8799L100.564 73.2624L98.5546 73.5745L97.6167 75.4029L96.7235 73.5745L94.7139 73.2624L96.1876 71.8799L95.8304 69.8286L97.6167 70.8096Z" fill="#29ABE2"/>
<path d="M120.169 53.15C119.857 53.15 119.544 53.1054 119.231 53.1054C113.113 53.1054 107.218 55.6027 102.975 60.0176C99.09 58.2784 94.8027 57.4311 90.5601 57.5649C87.1213 57.6987 83.7272 58.4122 80.601 59.7947C77.7428 57.4757 74.2594 56.0041 70.642 55.5135C69.5702 55.5135 68.4537 55.4244 67.3819 55.3352C63.8091 55.4244 60.3257 56.45 57.2442 58.323C56.2617 57.8325 55.2345 57.3865 54.2074 57.0298C51.1705 55.9149 47.9104 55.3352 44.6503 55.3352C40.2737 55.3352 35.9417 56.3608 32.0563 58.323C28.8409 56.3608 25.1788 55.3352 21.4274 55.3352C10.2179 55.3352 1.10742 64.4326 1.10742 75.6259C1.10742 75.7151 1.10742 75.7597 1.10742 75.8489H2.8938C2.8938 75.7597 2.8938 75.7151 2.8938 75.6259C2.8938 65.4137 11.2004 57.119 21.4274 57.119C25.0448 57.119 28.5283 58.1447 31.5204 60.1068L31.967 60.3744L32.4136 60.1068C36.165 58.1447 40.363 57.0744 44.6503 57.0744C48.9376 57.0744 53.1356 58.1001 56.8869 60.1068L57.3335 60.3744L57.4228 60.3298L57.7801 60.1068C60.7723 58.1447 64.3004 57.119 67.8731 57.119C72.2497 57.119 76.537 58.6798 79.8418 61.5339L80.2884 61.8906L80.8243 61.6677C83.9058 60.2852 87.2106 59.4825 90.6494 59.3933C94.892 59.2595 99.0007 60.1068 102.841 61.9352L103.422 62.2028L103.869 61.7123C107.709 57.4757 113.113 55.023 118.829 54.9338C118.963 54.9338 119.142 54.9338 119.276 54.9338C130.709 54.9338 140.043 64.2542 140.043 75.6705C140.043 75.7597 140.043 75.8043 140.043 75.8935H141.829C141.829 75.8043 141.829 75.7597 141.829 75.6705C141.784 63.4961 132.183 53.596 120.169 53.15Z" fill="#29ABE2"/>
<path d="M90.5597 57.5649C94.8023 57.4311 99.0896 58.2339 102.975 60.0177C107.218 55.6027 113.113 53.1054 119.231 53.1054C119.544 53.1054 119.856 53.1054 120.169 53.15C130.039 39.4147 129.86 21.0861 118.338 8.10895C115.882 5.34405 113.113 3.0251 110.076 1.10751C117.355 16.2253 112.979 34.9106 98.2411 46.3716C90.1131 52.6595 80.288 55.6919 70.6416 55.5135C74.259 56.0041 77.6978 57.4757 80.6006 59.7947C83.7715 58.4568 87.1209 57.6987 90.5597 57.5649Z" fill="#29ABE2"/>
<path d="M67.3821 55.3352C60.9065 54.7554 54.6542 52.704 49.1611 49.3148C50.4563 52.0351 52.1533 54.6216 54.2076 57.0298C55.2348 57.3865 56.262 57.8325 57.2445 58.323C60.2813 56.45 63.7647 55.4243 67.3821 55.3352Z" fill="#29ABE2"/>
<path d="M67.8731 55.3352C67.6945 55.3352 67.5158 55.3352 67.3818 55.3352C68.4537 55.4244 69.5701 55.5136 70.642 55.5136C69.7041 55.3798 68.8109 55.3352 67.8731 55.3352Z" fill="#29ABE2"/>
<path d="M47.6873 68.4015L49.2057 67.5988L48.8931 69.2488L50.0989 70.4083L48.4465 70.6759L47.6873 72.1475L46.9727 70.6759L45.3203 70.4083L46.5261 69.2488L46.2135 67.5988L47.6873 68.4015Z" fill="#29ABE2"/>
<path d="M70.9996 66.7069L72.652 65.815L72.3394 67.688L73.6792 68.9813L71.8035 69.2488L70.9996 70.9434L70.1511 69.2488L68.2754 68.9813L69.6598 67.688L69.3026 65.815L70.9996 66.7069Z" fill="#29ABE2"/>
<path d="M115.302 80.3976L116.686 79.6395L116.418 81.2003L117.535 82.2706L116.016 82.4936L115.302 83.876L114.632 82.4936L113.113 82.2706L114.185 81.2003L113.962 79.6395L115.302 80.3976Z" fill="#29ABE2"/>
<path d="M27.5905 72.2367L18.7927 87.1315L15.9345 85.4369L21.4722 76.1165L10.3967 82.1814L7.94043 80.7098L16.7383 65.815L19.5965 67.5096L13.8801 77.1422L25.2236 70.8543L27.5905 72.2367Z" fill="#29ABE2"/>
<path d="M32.1015 86.8193L38.2198 80.2192L40.2295 80.8435L39.5596 93.9991L36.5674 93.1072L37.1033 85.4368L31.2529 91.5018L30.0025 91.1004L28.618 82.8503L24.7773 89.5396L21.7852 88.6477L28.5734 77.3205L30.583 77.9449L32.1015 86.8193Z" fill="#29ABE2"/>
<path d="M44.7401 94.668L41.5693 94.1775L43.579 81.5571L54.6545 83.2963L52.6449 95.9167L49.474 95.4261L50.9925 85.8382L46.2586 85.0801L44.7401 94.668Z" fill="#29ABE2"/>
<path d="M68.7668 91.5018L58.4505 90.922C58.5398 91.8585 58.8971 92.5721 59.5223 93.1518C60.1475 93.7315 60.9514 94.0437 61.9339 94.0883C63.1397 94.1775 64.1669 93.7761 65.1047 93.018L67.7396 94.4451C67.0251 95.3815 66.1765 96.0059 65.194 96.4072C64.2115 96.8086 63.095 96.987 61.7999 96.8978C59.7903 96.764 58.1825 96.0505 57.0214 94.7126C55.8156 93.3748 55.2797 91.7693 55.4137 89.8518C55.503 87.8896 56.2622 86.3288 57.5573 85.1247C58.8971 83.9206 60.5048 83.3409 62.3805 83.4747C64.3902 83.6085 65.9979 84.322 67.2037 85.6598C68.4095 86.9977 68.9454 88.7369 68.8114 90.8774L68.7668 91.5018ZM65.6853 88.7815C65.5067 88.068 65.1494 87.4436 64.5241 86.9531C63.9436 86.4625 63.229 86.195 62.3805 86.1504C61.4873 86.1058 60.6835 86.3287 59.9689 86.7747C59.5223 87.0423 59.1204 87.5774 58.7184 88.3801L65.6853 88.7815Z" fill="#29ABE2"/>
<path d="M73.4553 84.0098L73.4999 85.4368C74.0358 84.8125 74.6611 84.3666 75.3309 84.0544C76.0008 83.7422 76.7154 83.5638 77.4746 83.5192C79.127 83.4301 80.6007 84.0098 81.8065 85.2139C83.0123 86.4179 83.6822 88.0234 83.7716 89.9855C83.8609 91.9031 83.325 93.5086 82.1638 94.8464C81.0027 96.1843 79.6182 96.8978 77.9658 96.9424C77.2066 96.987 76.5367 96.8532 75.9115 96.6302C75.2863 96.4072 74.6164 96.0059 73.9465 95.4261L74.2145 101.446L71.0437 101.58L70.3291 84.1436L73.4553 84.0098ZM76.9387 86.5071C75.9115 86.5517 75.1076 86.9085 74.4824 87.6666C73.8572 88.3801 73.5446 89.3166 73.5892 90.4315C73.6339 91.5464 73.9912 92.4829 74.7057 93.1518C75.4203 93.8207 76.2688 94.1329 77.2513 94.0883C78.2338 94.0437 79.0377 93.6423 79.6629 92.9288C80.2881 92.1707 80.6007 91.2788 80.5561 90.1639C80.5114 89.049 80.1541 88.2017 79.4396 87.4882C78.725 86.7747 77.9212 86.4625 76.9387 86.5071Z" fill="#29ABE2"/>
<path d="M88.1035 95.8721L86.4065 96.0951L84.6201 83.43L87.7016 82.9841L88.7734 90.4315L94.2219 82.0476L95.7403 81.8246L97.5267 94.4896L94.4452 94.9356L93.418 87.6666L88.1035 95.8721Z" fill="#29ABE2"/>
<path d="M106.548 79.1935L109.674 78.3462L112.979 90.6991L109.853 91.5464L109.496 90.2531C109.049 91.0112 108.558 91.5464 108.022 91.9923C107.486 92.3937 106.861 92.7058 106.146 92.8842C104.538 93.3302 103.02 93.0626 101.502 92.1261C99.9832 91.1896 99.0007 89.8072 98.5095 87.9788C98.0182 86.0612 98.1522 84.3666 98.9561 82.8503C99.76 81.3341 100.966 80.353 102.573 79.9071C103.333 79.7287 104.047 79.6841 104.762 79.7733C105.476 79.8625 106.191 80.13 106.905 80.5314L106.548 79.1935ZM103.958 82.5828C103.02 82.8503 102.306 83.3855 101.859 84.2328C101.412 85.0801 101.323 86.0166 101.591 87.0869C101.859 88.1571 102.44 88.9599 103.243 89.4504C104.092 89.9855 104.94 90.1193 105.923 89.8518C106.905 89.5842 107.62 89.049 108.067 88.2017C108.513 87.3544 108.602 86.3733 108.335 85.3031C108.067 84.2328 107.486 83.4301 106.682 82.9395C105.834 82.449 104.94 82.3152 103.958 82.5828Z" fill="#29ABE2"/>
<path d="M132.629 80.9774L121.911 72.6381L124.412 86.0166L121.42 87.845L118.07 69.6056L120.929 67.8664L135.666 79.1489L132.629 80.9774Z" fill="#29ABE2"/>
</svg>
