<svg width="40" height="40" viewBox="0 0 40 40" fill="none" xmlns="http://www.w3.org/2000/svg">
<path d="M35.2357 22.103H29.2995C28.4365 22.103 27.737 22.8026 27.737 23.6655C27.737 24.5285 28.4365 25.228 29.2995 25.228H31.4647L23.9694 32.7232C23.3592 33.3334 23.3592 34.3227 23.9694 34.9329C24.5796 35.543 25.5688 35.5432 26.1791 34.9329L33.6745 27.4377V29.6029C33.6745 30.4659 34.374 31.1654 35.237 31.1654C36.0999 31.1654 36.7995 30.4659 36.7995 29.6029V23.6655C36.7995 23.6653 36.7995 23.6651 36.7995 23.6648C36.799 22.8158 36.109 22.1024 35.2357 22.103Z" fill="#29ABE2"/>
<path d="M38.4376 4.60938H29.2188C28.3559 4.60938 27.6563 5.30891 27.6563 6.17188V13.8281H20.0001C19.1372 13.8281 18.4376 14.5277 18.4376 15.3906V23.0469H10.7813C9.91836 23.0469 9.21883 23.7464 9.21883 24.6094V32.2656H1.5625C0.699531 32.2656 0 32.9652 0 33.8281C0 34.6911 0.699531 35.3906 1.5625 35.3906H10.7813C11.1957 35.3906 11.5932 35.226 11.8862 34.933C12.1792 34.64 12.3438 34.2425 12.3438 33.8281L12.3438 26.1719H20.0001C20.4145 26.1719 20.812 26.0073 21.1049 25.7142C21.398 25.4212 21.5626 25.0238 21.5626 24.6094L21.5625 16.9531H29.2188C29.6332 16.9531 30.0306 16.7885 30.3236 16.4955C30.6166 16.2025 30.7812 15.805 30.7812 15.3906L30.7812 7.73438H38.4375C39.3005 7.73438 40 7.03484 40 6.17188C40 5.30891 39.3005 4.60938 38.4376 4.60938Z" fill="#29ABE2"/>
</svg>
