<svg width="50" height="50" viewBox="0 0 50 50" fill="none" xmlns="http://www.w3.org/2000/svg">
<g clip-path="url(#clip0_20_105)">
<path d="M48.7348 21.7296C48.29 21.2813 47.7301 20.967 47.0633 20.7868V13.284C47.0633 9.24639 43.7785 5.96143 39.7408 5.96143H10.2554C6.21771 5.96143 2.93285 9.24629 2.93285 13.284V20.7868C2.26605 20.967 1.70619 21.2812 1.26146 21.7296C-0.0322908 23.0335 -0.0127595 25.0407 0.00384207 27.1657C0.0113616 28.1253 0.00384207 36.716 0.00384207 36.716C0.00384207 37.5248 0.659506 38.1806 1.46839 38.1806H2.93294V42.5741C2.93294 43.3829 3.58861 44.0387 4.39749 44.0387C5.20638 44.0387 5.86205 43.383 5.86205 42.5741V38.1806H44.1345V42.5741C44.1345 43.3829 44.7902 44.0387 45.5991 44.0387C46.4079 44.0387 47.0636 43.383 47.0636 42.5741V38.1806H48.5282C49.3369 38.1806 49.9927 37.5249 49.9927 36.716C49.9926 36.5518 49.9909 27.9077 49.9967 27.1657C50.0129 25.0406 50.0285 23.0335 48.7348 21.7296ZM5.86185 13.284C5.86185 10.8614 7.83275 8.89043 10.2554 8.89043H39.7408C42.1633 8.89043 44.1343 10.8613 44.1343 13.284V20.6065H41.2053V16.213C41.2053 13.7904 39.2344 11.8194 36.8118 11.8194H27.9271C26.8027 11.8194 25.776 12.2445 24.9981 12.9417C24.2201 12.2444 23.1935 11.8194 22.0691 11.8194H13.1844C10.7618 11.8194 8.79085 13.7903 8.79085 16.213V20.6065H5.86185V13.284ZM38.2763 16.213V20.6065H26.4626V16.213C26.4626 15.4055 27.1196 14.7484 27.9272 14.7484H36.8118C37.6194 14.7484 38.2763 15.4055 38.2763 16.213ZM23.5336 16.213V20.6065H11.72V16.213C11.72 15.4055 12.3769 14.7484 13.1845 14.7484H22.0692C22.8766 14.7484 23.5336 15.4055 23.5336 16.213ZM47.0633 35.2516H2.93285V32.3226H47.0633V35.2516ZM47.0674 27.1429C47.0602 28.0727 47.065 27.858 47.0633 29.3936H2.93285C2.93138 27.9393 2.93587 28.0459 2.92874 27.1429C2.90355 23.9121 3.03392 23.5355 4.3974 23.5355H45.5989C45.9646 23.5355 46.4448 23.5802 46.6557 23.7926C47.0902 24.2306 47.0781 25.7777 47.0674 27.1429Z" fill="white"/>
</g>
<defs>
<clipPath id="clip0_20_105">
<rect width="50" height="50" fill="white"/>
</clipPath>
</defs>
</svg>
