<svg width="50" height="50" viewBox="0 0 50 50" fill="none" xmlns="http://www.w3.org/2000/svg">
<g clip-path="url(#clip0_20_80)">
<path d="M49.4324 23.0872L29.0818 2.60252C29.0557 2.57615 29.0287 2.55056 29.0012 2.52576C26.779 0.530543 23.4211 0.523414 21.1904 2.50925C21.1627 2.53396 21.1357 2.55945 21.1095 2.58562L0.573426 23.0813C-0.19005 23.8433 -0.19132 25.08 0.570692 25.8434C1.3328 26.607 2.56942 26.6081 3.3328 25.8462L4.8828 24.2992V41.1629C4.8828 45.4707 8.38749 48.9754 12.6953 48.9754H37.3047C41.6125 48.9754 45.1172 45.4707 45.1172 41.1629C45.1172 40.0842 44.2428 39.2097 43.1641 39.2097C42.0853 39.2097 41.2109 40.0842 41.2109 41.1629C41.2109 43.3168 39.4586 45.0691 37.3047 45.0691H12.6953C10.5414 45.0691 8.78905 43.3168 8.78905 41.1629V20.4597C8.78905 20.4407 8.78681 20.4222 8.78622 20.4034L23.8228 5.39636C24.5546 4.77498 25.6278 4.77732 26.3567 5.40173L41.2109 20.354V31.3972C41.2109 32.476 42.0853 33.3504 43.1641 33.3504C44.2428 33.3504 45.1172 32.476 45.1172 31.3972V24.2859L46.6613 25.8403C47.0431 26.2246 47.5448 26.4169 48.0469 26.4169C48.5446 26.4169 49.0425 26.2277 49.4234 25.8493C50.1887 25.089 50.1928 23.8524 49.4324 23.0872Z" fill="white"/>
<path d="M13.5287 41.4934C13.8696 41.7321 14.2602 41.8467 14.647 41.8467C15.2627 41.8467 15.8687 41.5564 16.2487 41.0137C16.2643 40.9914 17.1911 39.6709 18.343 38.178C19.2434 38.688 20.8055 39.3076 23.2818 39.3076C25.873 39.3076 28.278 38.2107 30.4297 36.0475C35.818 30.6304 35.8631 21.6087 35.8382 20.2576C35.8385 20.2509 35.8388 20.2444 35.839 20.2377C35.8754 19.1621 35.0349 18.2597 33.9595 18.2198C33.5475 18.2048 23.7964 17.911 18.0806 23.6575C15.8523 25.8977 14.7305 28.3146 14.7464 30.8411C14.7574 32.5972 15.3224 34.0523 15.8167 35.0672C14.3668 36.8946 13.1254 38.6635 13.0485 38.7733C12.43 39.6569 12.6449 40.8747 13.5287 41.4934ZM20.8501 26.4122C24.0147 23.2305 29.1014 22.4015 31.8688 22.1905C31.6654 24.969 30.8482 30.0876 27.6601 33.2926C25.7802 35.1827 24.2609 35.4012 23.2817 35.4012C22.2377 35.4012 21.4877 35.2538 20.9551 35.075C22.896 33.0701 25.988 30.6081 26.0196 30.583C26.8641 29.912 27.0051 28.6834 26.3342 27.8388C25.6633 26.9941 24.4347 26.8531 23.5902 27.524C23.4656 27.6229 20.828 29.7228 18.7551 31.7493C18.693 31.4513 18.6547 31.1395 18.6526 30.8164C18.6434 29.3691 19.3829 27.8873 20.8501 26.4122Z" fill="white"/>
</g>
<defs>
<clipPath id="clip0_20_80">
<rect width="50" height="50" fill="white"/>
</clipPath>
</defs>
</svg>
