<svg width="50" height="50" viewBox="0 0 50 50" fill="none" xmlns="http://www.w3.org/2000/svg">
<path d="M46.8186 24.3447L40.9593 12.626C40.6756 12.1281 40.2773 11.8164 39.6487 11.8164H10.3518C9.73934 11.8164 9.32977 12.1203 9.0413 12.626L3.18192 24.3447C2.91063 24.9209 3.0035 25.4999 3.38797 25.9619L23.8958 49.4971C24.1741 49.8164 24.5765 50 25.0003 50C25.4241 50 25.8265 49.8164 26.1048 49.4971L46.6126 25.9619C46.9946 25.5022 47.0916 24.9239 46.8186 24.3447ZM37.2786 14.7461L33.5393 22.2246L27.93 14.7461H37.2786ZM30.8597 23.5352H19.1409L25.0003 15.7227L30.8597 23.5352ZM22.0706 14.7461L16.4612 22.2246L12.722 14.7461H22.0706ZM10.3518 16.5566L13.8411 23.5352H6.86258L10.3518 16.5566ZM7.71219 26.4648H15.2434L22.4651 43.3965L7.71219 26.4648ZM25.0003 41.8721L18.429 26.4648H31.5716L25.0003 41.8721ZM27.5354 43.3965L34.7571 26.4648H42.2884L27.5354 43.3965ZM36.1595 23.5352L39.6487 16.5566L43.138 23.5352H36.1595Z" fill="white"/>
<path d="M25 0C24.191 0 23.5352 0.655859 23.5352 1.46484V4.49219C23.5352 5.30117 24.191 5.95703 25 5.95703C25.809 5.95703 26.4648 5.30117 26.4648 4.49219V1.46484C26.4648 0.655859 25.809 0 25 0Z" fill="white"/>
<path d="M18.7851 6.45962L16.7135 4.38804C16.1416 3.81597 15.214 3.81597 14.6419 4.38804C14.0699 4.96011 14.0699 5.88755 14.6419 6.45962L16.7135 8.5312C17.2855 9.10327 18.2131 9.10337 18.7851 8.5312C19.3572 7.95913 19.3572 7.03169 18.7851 6.45962Z" fill="white"/>
<path d="M35.3584 4.38804C34.7864 3.81597 33.8588 3.81597 33.2868 4.38804L31.2152 6.45962C30.6431 7.03169 30.6431 7.95913 31.2152 8.5312C31.7872 9.10327 32.7148 9.10337 33.2868 8.5312L35.3584 6.45962C35.9304 5.88755 35.9304 4.96011 35.3584 4.38804Z" fill="white"/>
</svg>
