<svg width="50" height="50" viewBox="0 0 50 50" fill="none" xmlns="http://www.w3.org/2000/svg">
<g clip-path="url(#clip0_20_112)">
<path d="M46.239 13.5653L46.2374 13.5264C46.2157 13.0461 46.2012 12.538 46.1924 11.9727C46.1516 9.21578 43.9601 6.93536 41.2028 6.78125C35.4541 6.46043 31.0069 4.5859 27.2071 0.882219L27.1747 0.85132C25.9353 -0.285075 24.0657 -0.285075 22.8259 0.85132L22.7935 0.882219C18.9937 4.5859 14.5465 6.46043 8.7978 6.78163C6.04093 6.93536 3.84901 9.21578 3.80819 11.973C3.7998 12.5346 3.78492 13.0427 3.76318 13.5264L3.76089 13.6168C3.64912 19.4788 3.51027 26.7744 5.9509 33.3963C7.29291 37.0378 9.32538 40.2032 11.9915 42.8052C15.028 45.7685 19.0051 48.121 23.8124 49.7972C23.9688 49.8517 24.1313 49.896 24.2969 49.9292C24.5303 49.9757 24.7653 49.999 25.0003 49.999C25.2353 49.999 25.4707 49.9757 25.7037 49.9292C25.8693 49.896 26.0329 49.8513 26.1901 49.7964C30.9916 48.1172 34.9646 45.7635 37.9985 42.8007C40.6634 40.1979 42.6959 37.0317 44.039 33.3895C46.4888 26.7477 46.3503 19.4384 46.239 13.5653ZM41.2863 32.3744C38.7122 39.3537 33.4575 44.1469 25.2219 47.027C25.1926 47.0369 25.1613 47.0456 25.1289 47.0521C25.0438 47.0689 24.9572 47.0689 24.871 47.0518C24.8389 47.0453 24.8077 47.0369 24.7787 47.027C16.5344 44.1522 11.2762 39.3617 8.70396 32.382C6.45444 26.2781 6.58185 19.581 6.69439 13.6729L6.69515 13.6401C6.71804 13.1323 6.7333 12.6006 6.74169 12.0161C6.76 10.792 7.73503 9.77921 8.96145 9.71093C12.2146 9.52935 15.0726 8.90069 17.6986 7.78909C20.3212 6.67902 22.6505 5.11423 24.8187 3.00547C24.929 2.9124 25.072 2.91201 25.1819 3.00547C27.3505 5.11423 29.6798 6.67902 32.302 7.78909C34.928 8.90069 37.786 9.52935 41.0395 9.71093C42.266 9.77921 43.241 10.792 43.2589 12.0165C43.2677 12.604 43.283 13.1358 43.3058 13.6401C43.418 19.5551 43.5424 26.2575 41.2863 32.3744Z" fill="white"/>
<path d="M24.9998 12.54C18.1287 12.54 12.5391 18.1301 12.5391 25.0007C12.5391 31.8718 18.1287 37.4618 24.9998 37.4618C31.8704 37.4618 37.4605 31.8718 37.4605 25.0007C37.4605 18.1301 31.8704 12.54 24.9998 12.54ZM24.9998 34.5276C19.7466 34.5276 15.4729 30.254 15.4729 25.0007C15.4729 19.7475 19.7466 15.4739 24.9998 15.4739C30.2526 15.4739 34.5262 19.7475 34.5262 25.0007C34.5262 30.254 30.2526 34.5276 24.9998 34.5276Z" fill="white"/>
<path d="M28.5806 21.1323L22.7929 26.9199L21.222 25.349C20.6491 24.7761 19.7202 24.7761 19.1472 25.349C18.5746 25.922 18.5746 26.8509 19.1472 27.4235L21.7557 30.032C22.0422 30.3185 22.4176 30.4615 22.7929 30.4615C23.1683 30.4615 23.5437 30.3185 23.8301 30.032L30.6554 23.2067C31.228 22.6337 31.228 21.7049 30.6554 21.1323C30.0824 20.5589 29.1535 20.5589 28.5806 21.1323Z" fill="white"/>
</g>
<defs>
<clipPath id="clip0_20_112">
<rect width="50" height="50" fill="white"/>
</clipPath>
</defs>
</svg>
