<svg width="40" height="40" viewBox="0 0 40 40" fill="none" xmlns="http://www.w3.org/2000/svg">
<g clip-path="url(#clip0_25_173)">
<path d="M30.21 23.7815C27.4298 23.7815 25.168 26.0433 25.168 28.8235C25.168 31.6038 27.4298 33.8656 30.21 33.8656C32.9907 33.8656 35.252 31.6038 35.252 28.8235C35.252 26.0433 32.9902 23.7815 30.21 23.7815ZM30.21 31.3445C28.8197 31.3445 27.689 30.2138 27.689 28.8235C27.689 27.4332 28.8197 26.3025 30.21 26.3025C31.6003 26.3025 32.731 27.4332 32.731 28.8235C32.731 30.2139 31.6003 31.3445 30.21 31.3445Z" fill="#29ABE2"/>
<path d="M12.9825 23.7815C10.2022 23.7815 7.94043 26.0433 7.94043 28.8235C7.94043 31.6038 10.2022 33.8656 12.9825 33.8656C15.7627 33.8656 18.0245 31.6038 18.0245 28.8235C18.0245 26.0433 15.7627 23.7815 12.9825 23.7815ZM12.9825 31.3445C11.5921 31.3445 10.4614 30.2138 10.4614 28.8235C10.4614 27.4332 11.5921 26.3025 12.9825 26.3025C14.3724 26.3025 15.5035 27.4332 15.5035 28.8235C15.5035 30.2139 14.3728 31.3445 12.9825 31.3445Z" fill="#29ABE2"/>
<path d="M33.606 9.34966C33.3917 8.92403 32.956 8.65552 32.4795 8.65552H25.8408V11.1765H31.7021L35.1345 18.0034L37.3875 16.8706L33.606 9.34966Z" fill="#29ABE2"/>
<path d="M26.4284 27.6052H16.8906V30.1262H26.4284V27.6052Z" fill="#29ABE2"/>
<path d="M9.20144 27.6052H4.83176C4.13551 27.6052 3.57129 28.1695 3.57129 28.8657C3.57129 29.5619 4.13559 30.1262 4.83176 30.1262H9.20152C9.89777 30.1262 10.462 29.5619 10.462 28.8657C10.462 28.1694 9.8977 27.6052 9.20144 27.6052Z" fill="#29ABE2"/>
<path d="M39.7351 19.8992L37.2557 16.7059C37.0175 16.3983 36.6499 16.2185 36.2603 16.2185H27.1007V7.39499C27.1007 6.69874 26.5364 6.13452 25.8402 6.13452H4.83176C4.13551 6.13452 3.57129 6.69882 3.57129 7.39499C3.57129 8.09116 4.13559 8.65546 4.83176 8.65546H24.5796V17.479C24.5796 18.1752 25.1439 18.7394 25.8401 18.7394H35.6431L37.4788 21.1041V27.605H33.9914C33.2951 27.605 32.7309 28.1693 32.7309 28.8655C32.7309 29.5617 33.2952 30.1259 33.9914 30.1259H38.7393C39.4355 30.1259 39.9997 29.5616 39.9998 28.8655V20.6723C39.9998 20.3925 39.9065 20.1202 39.7351 19.8992Z" fill="#29ABE2"/>
<path d="M9.1184 21.2185H3.32004C2.62379 21.2185 2.05957 21.7828 2.05957 22.479C2.05957 23.1752 2.62387 23.7394 3.32004 23.7394H9.11832C9.81457 23.7394 10.3788 23.1751 10.3788 22.479C10.3789 21.7828 9.81457 21.2185 9.1184 21.2185Z" fill="#29ABE2"/>
<path d="M12.0168 16.2605H1.26047C0.564297 16.2605 0 16.8248 0 17.521C0 18.2173 0.564297 18.7815 1.26047 18.7815H12.0168C12.713 18.7815 13.2773 18.2172 13.2773 17.521C13.2773 16.8249 12.713 16.2605 12.0168 16.2605Z" fill="#29ABE2"/>
<path d="M14.0764 11.3025H3.32004C2.62379 11.3025 2.05957 11.8668 2.05957 12.563C2.05957 13.2592 2.62387 13.8234 3.32004 13.8234H14.0764C14.7726 13.8234 15.3368 13.2591 15.3368 12.563C15.3369 11.8668 14.7726 11.3025 14.0764 11.3025Z" fill="#29ABE2"/>
</g>
<defs>
<clipPath id="clip0_25_173">
<rect width="40" height="40" fill="white"/>
</clipPath>
</defs>
</svg>
