<svg width="121" height="71" viewBox="0 0 121 71" fill="none" xmlns="http://www.w3.org/2000/svg">
<path d="M81.2277 15.0609L82.5898 14.3452L82.325 15.8519L83.4222 16.9066L81.9088 17.1326L81.2277 18.4887L80.5467 17.1326L79.0332 16.9066L80.1305 15.8519L79.9034 14.3452L81.2277 15.0609Z" fill="#29ABE2"/>
<path d="M74.7572 28.9224L76.3085 28.0938L76.0058 29.8265L77.2544 30.9942L75.5518 31.2578L74.7572 32.8022L74.0005 31.2578L72.2979 30.9942L73.5464 29.8265L73.2438 28.0938L74.7572 28.9224Z" fill="#29ABE2"/>
<path d="M51.8663 33.6313L53.7581 32.6143L53.3797 34.7236L54.931 36.2304L52.8122 36.5317L51.8663 38.4527L50.9204 36.5317L48.7637 36.2304L50.315 34.7236L49.9366 32.6143L51.8663 33.6313Z" fill="#29ABE2"/>
<path d="M82.7025 59.8101L84.2538 58.9814L83.9511 60.7142L85.1997 61.8819L83.4971 62.1455L82.7025 63.6899L81.9458 62.1455L80.2432 61.8819L81.4918 60.7142L81.1891 58.9814L82.7025 59.8101Z" fill="#29ABE2"/>
<path d="M101.81 44.8936C101.545 44.8936 101.281 44.856 101.016 44.856C95.8321 44.856 90.8377 46.9653 87.2433 50.6945C83.9515 49.2254 80.3192 48.5097 76.7248 48.6227C73.8114 48.7357 70.9358 49.3384 68.2872 50.5061C65.8657 48.5474 62.9145 47.3044 59.8497 46.89C58.9417 46.89 57.9957 46.8147 57.0877 46.7393C54.0608 46.8147 51.1095 47.681 48.4988 49.2631C47.6664 48.8487 46.7962 48.4721 45.9259 48.1707C43.3531 47.229 40.591 46.7393 37.829 46.7393C34.121 46.7393 30.4509 47.6057 27.1591 49.2631C24.4349 47.6057 21.3323 46.7393 18.154 46.7393C8.6571 46.7393 0.938477 54.4236 0.938477 63.8782C0.938477 63.9535 0.938477 63.9912 0.938477 64.0665H2.45193C2.45193 63.9912 2.45193 63.9535 2.45193 63.8782C2.45193 55.2522 9.4895 48.2461 18.154 48.2461C21.2188 48.2461 24.17 49.1124 26.7051 50.7698L27.0834 50.9958L27.4618 50.7698C30.64 49.1124 34.1967 48.2084 37.829 48.2084C41.4612 48.2084 45.0179 49.0747 48.1961 50.7698L48.5745 50.9958L48.6502 50.9581L48.9529 50.7698C51.4879 49.1124 54.477 48.2461 57.5039 48.2461C61.2118 48.2461 64.8441 49.5644 67.644 51.9752L68.0224 52.2765L68.4764 52.0882C71.0871 50.9205 73.887 50.2424 76.8004 50.1671C80.3949 50.0541 83.8758 50.7698 87.1298 52.3142L87.6216 52.5402L88 52.1258C91.2539 48.5474 95.8321 46.4757 100.675 46.4003C100.789 46.4003 100.94 46.4003 101.054 46.4003C110.74 46.4003 118.647 54.2729 118.647 63.9158C118.647 63.9912 118.647 64.0288 118.647 64.1042H120.161C120.161 64.0288 120.161 63.9912 120.161 63.9158C120.123 53.6325 111.988 45.2703 101.81 44.8936Z" fill="#29ABE2"/>
<path d="M76.7246 48.6229C80.3191 48.5099 83.9514 49.1879 87.2432 50.6946C90.8376 46.9655 95.832 44.8561 101.016 44.8561C101.28 44.8561 101.545 44.8561 101.81 44.8938C110.172 33.2921 110.021 17.8107 100.259 6.84938C98.1779 4.51398 95.832 2.55526 93.2591 0.935547C99.4265 13.7049 95.7185 29.4877 83.2325 39.1683C76.3463 44.4794 68.0223 47.0408 59.8496 46.8902C62.9144 47.3045 65.8278 48.5475 68.2871 50.5063C70.9735 49.3762 73.8112 48.7359 76.7246 48.6229Z" fill="#29ABE2"/>
<path d="M57.0876 46.7394C51.6014 46.2498 46.3043 44.517 41.6504 41.6543C42.7476 43.952 44.1854 46.1368 45.9259 48.1708C46.7961 48.4722 47.6664 48.8488 48.4988 49.2632C51.0716 47.6811 54.0229 46.8148 57.0876 46.7394Z" fill="#29ABE2"/>
<path d="M57.5041 46.7397C57.3527 46.7397 57.2014 46.7397 57.0879 46.7397C57.996 46.8151 58.9419 46.8904 59.8499 46.8904C59.0554 46.7774 58.2987 46.7397 57.5041 46.7397Z" fill="#29ABE2"/>
<path d="M40.4018 57.7762L41.6883 57.0981L41.4234 58.4918L42.445 59.4712L41.045 59.6972L40.4018 60.9402L39.7964 59.6972L38.3965 59.4712L39.4181 58.4918L39.1532 57.0981L40.4018 57.7762Z" fill="#29ABE2"/>
<path d="M60.1527 56.3447L61.5527 55.5913L61.2878 57.1734L62.4229 58.2657L60.8338 58.4917L60.1527 59.9231L59.4339 58.4917L57.8447 58.2657L59.0177 57.1734L58.715 55.5913L60.1527 56.3447Z" fill="#29ABE2"/>
<path d="M97.686 67.9089L98.8589 67.2686L98.6319 68.5869L99.5778 69.491L98.2914 69.6793L97.686 70.847L97.1185 69.6793L95.832 69.491L96.7401 68.5869L96.5509 67.2686L97.686 67.9089Z" fill="#29ABE2"/>
</svg>
