<?xml version="1.0" encoding="UTF-8" standalone="no"?>
<svg
   width="8"
   height="8"
   viewBox="0 0 8 8"
   fill="none"
   version="1.1"
   id="svg4"
   sodipodi:docname="chevron-up.svg"
   inkscape:version="1.2.2 (b0a8486541, 2022-12-01)"
   xmlns:inkscape="http://www.inkscape.org/namespaces/inkscape"
   xmlns:sodipodi="http://sodipodi.sourceforge.net/DTD/sodipodi-0.dtd"
   xmlns="http://www.w3.org/2000/svg"
   xmlns:svg="http://www.w3.org/2000/svg">
  <defs
     id="defs8" />
  <sodipodi:namedview
     id="namedview6"
     pagecolor="#ffffff"
     bordercolor="#000000"
     borderopacity="0.25"
     inkscape:showpageshadow="2"
     inkscape:pageopacity="0.0"
     inkscape:pagecheckerboard="0"
     inkscape:deskcolor="#d1d1d1"
     showgrid="false"
     inkscape:zoom="29.5"
     inkscape:cx="4.0169492"
     inkscape:cy="4"
     inkscape:window-width="1728"
     inkscape:window-height="1071"
     inkscape:window-x="0"
     inkscape:window-y="0"
     inkscape:window-maximized="1"
     inkscape:current-layer="svg4" />
  <path
     d="m 4.00169,3.2294218 -2.99291,2.99278 c -0.082211,0.08241 -0.19213,0.12774 -0.309333,0.12774 -0.117268,0 -0.227122,-0.04533 -0.309463,-0.12774 L 0.12787,5.9599618 C 0.0453982,5.8776818 -1.79986e-7,5.7677018 -1.74863e-7,5.6505018 -1.6974e-7,5.5332918 0.0453982,5.4234418 0.12787,5.3411018 l 3.56332,-3.56338 c 0.0826,-0.08267 0.19297,-0.12794 0.31031,-0.12761 0.11785,-3.3e-4 0.22809,0.04487 0.31076,0.12761 l 3.55987,3.56006 C 7.9546,5.4201218 8,5.5299818 8,5.6472418 c 0,0.11721 -0.0454,0.22706 -0.12787,0.30947 l -0.26211,0.26218 c -0.17061,0.1706 -0.44833,0.1706 -0.61887,0 z"
     fill="#29abe2"
     id="path2" />
</svg>
