<svg width="10" height="10" viewBox="0 0 10 10" fill="none" xmlns="http://www.w3.org/2000/svg">
<g clip-path="url(#clip0_22_87)">
<path d="M5.55246 5.00075L9.88559 0.667592C10.0381 0.515033 10.0381 0.26769 9.88559 0.115151C9.73303 -0.0373876 9.48569 -0.0374072 9.33315 0.115151L5 4.44831L0.666859 0.115151C0.514301 -0.0374072 0.266957 -0.0374072 0.114419 0.115151C-0.03812 0.267709 -0.0381396 0.515053 0.114419 0.667592L4.44755 5.00073L0.114419 9.33388C-0.0381396 9.48644 -0.0381396 9.73378 0.114419 9.88632C0.190688 9.96259 0.290668 10.0007 0.390649 10.0007C0.490629 10.0007 0.59059 9.96259 0.666879 9.88632L5 5.55319L9.33313 9.88632C9.4094 9.96259 9.50938 10.0007 9.60936 10.0007C9.70934 10.0007 9.8093 9.96259 9.88559 9.88632C10.0381 9.73377 10.0381 9.48642 9.88559 9.33388L5.55246 5.00075Z" fill="white"/>
</g>
<defs>
<clipPath id="clip0_22_87">
<rect width="10" height="10" fill="white"/>
</clipPath>
</defs>
</svg>
