<svg width="16" height="16" viewBox="0 0 16 16" fill="none" xmlns="http://www.w3.org/2000/svg">
<g clip-path="url(#clip0_22_54)">
<path d="M16 8.00028C16 7.61993 15.7983 7.27333 15.4595 7.07233L14.5686 6.54818C14.9118 6.34438 15.2176 6.16261 15.4602 6.01827C15.7983 5.81655 16 5.46995 16 5.09103C16 4.71211 15.7983 4.36551 15.4602 4.16342C14.3466 3.5011 10.5703 1.25699 8.7088 0.189846C8.27769 -0.0576883 7.75354 -0.0676087 7.28762 0.191994C7.28762 0.191994 2.22512 3.16554 0.540444 4.16311C0.201716 4.36408 0 4.71068 0 5.09103C0 5.46995 0.201716 5.81655 0.539762 6.01865C0.782319 6.16288 1.08811 6.34462 1.43124 6.54832L0.540478 7.07233C0.201716 7.27333 0 7.61993 0 8.00028C0 8.3792 0.201716 8.72581 0.539762 8.9279C0.782319 9.07214 1.08811 9.25387 1.43124 9.45757L0.540478 9.98158C0.201716 10.1826 0 10.5292 0 10.9095C0 11.2885 0.201716 11.6351 0.539762 11.8371C1.98082 12.6941 5.52273 14.7968 7.2912 15.8107C7.50781 15.935 7.75357 16.0007 8.00002 16.0007C8.24646 16.0007 8.49222 15.935 8.70955 15.8103C10.4773 14.7968 14.0192 12.6941 15.4603 11.8368C15.7984 11.6351 16 11.2885 16 10.9095C16 10.5292 15.7983 10.1826 15.4596 9.98158L14.5686 9.45743C14.9119 9.25364 15.2177 9.07186 15.4603 8.92752C15.7983 8.72581 16 8.3792 16 8.00028ZM0.911932 5.39454C0.856535 5.36117 0.727262 5.26527 0.727262 5.09164C0.727262 4.91727 0.855819 4.82212 0.911217 4.78943C2.59374 3.79298 7.64915 0.823869 7.64844 0.82421C7.87998 0.69388 8.1328 0.698858 8.3473 0.821721C10.2038 1.88601 13.9766 4.12748 15.0881 4.78871C15.1435 4.82209 15.2727 4.91799 15.2727 5.09161C15.2727 5.26524 15.1435 5.36113 15.0881 5.39417C13.6492 6.24999 10.1115 8.3505 8.34802 9.36116C8.12926 9.48617 7.87003 9.4858 7.6527 9.3615C5.88849 8.3505 2.35084 6.25002 0.911932 5.39454ZM15.0888 10.6076C15.1442 10.6403 15.2727 10.7354 15.2727 10.9098C15.2727 11.0835 15.1435 11.1793 15.0881 11.2124C13.6492 12.0682 10.1115 14.1687 8.34802 15.1794C8.12926 15.3044 7.87003 15.304 7.6527 15.1797C5.88849 14.1687 2.35084 12.0682 0.911932 11.2127C0.856535 11.1793 0.727262 11.0834 0.727262 10.9098C0.727262 10.7354 0.855819 10.6403 0.911217 10.6076L2.14527 9.88142C3.81328 10.8701 6.01357 12.1692 7.2912 12.9016C7.50781 13.0259 7.75357 13.0916 8.00002 13.0916C8.24646 13.0916 8.49222 13.0259 8.70955 12.9013C9.98663 12.1691 12.1867 10.8702 13.8547 9.88139L15.0888 10.6076ZM15.0881 8.30328C13.6492 9.1591 10.1115 11.2596 8.34802 12.2703C8.12926 12.3953 7.87003 12.3949 7.6527 12.2706C5.88849 11.2596 2.35084 9.1591 0.911932 8.30362C0.856535 8.27025 0.727262 8.17435 0.727262 8.00073C0.727262 7.82635 0.855819 7.7312 0.911217 7.69851L2.14527 6.97234C3.81328 7.96101 6.01357 9.26008 7.2912 9.99252C7.50781 10.1168 7.75357 10.1825 8.00002 10.1825C8.24646 10.1825 8.49222 10.1168 8.70955 9.99218C9.98663 9.25998 12.1867 7.96111 13.8547 6.97231L15.0888 7.69851C15.1442 7.73117 15.2728 7.82635 15.2728 8.00073C15.2727 8.17435 15.1435 8.27025 15.0881 8.30328Z" fill="black"/>
</g>
<defs>
<clipPath id="clip0_22_54">
<rect width="16" height="16" fill="white"/>
</clipPath>
</defs>
</svg>
