<svg width="24" height="24" viewBox="0 0 24 24" fill="none" xmlns="http://www.w3.org/2000/svg">
<g clip-path="url(#clip0_20_67)">
<path d="M5.42187 7.05945C5.42187 3.44295 8.36483 0.5 11.9813 0.5C15.5978 0.5 18.5408 3.44295 18.5408 7.05945V16.9406C18.5408 20.5571 15.5978 23.5 11.9813 23.5C8.36483 23.5 5.42187 20.5571 5.42187 16.9406V7.05945ZM11.9813 23.0601C15.356 23.0601 18.1008 20.3152 18.1008 16.9406V7.05945C18.1008 3.6848 15.356 0.939942 11.9813 0.939942C8.60667 0.939942 5.86182 3.6848 5.86182 7.05945V16.9406C5.86182 20.3152 8.60667 23.0601 11.9813 23.0601Z" fill="#29ABE2" stroke="#29ABE2"/>
<path d="M11.7617 5.49426C11.7617 5.3727 11.8601 5.27429 11.9817 5.27429C12.1033 5.27429 12.2017 5.3727 12.2017 5.49426V8.80811C12.2017 8.92949 12.1031 9.02808 11.9817 9.02808C11.8602 9.02808 11.7617 8.92957 11.7617 8.80811V5.49426Z" fill="#29ABE2" stroke="#29ABE2"/>
</g>
<defs>
<clipPath id="clip0_20_67">
<rect width="24" height="24" fill="white"/>
</clipPath>
</defs>
</svg>
