<svg width="16" height="16" viewBox="0 0 16 16" fill="none" xmlns="http://www.w3.org/2000/svg">
<g clip-path="url(#clip0_22_23)">
<path d="M5.45768 7.85434C6.7834 7.85434 7.86457 7.04022 7.86457 6.04283C7.86457 5.04532 6.78662 4.2312 5.45768 4.2312C4.12874 4.2312 3.05078 5.04532 3.05078 6.04283C3.05078 7.04022 4.13195 7.85434 5.45768 7.85434ZM5.45768 4.87467C6.42294 4.87467 7.22099 5.40889 7.22099 6.04271C7.22099 6.67666 6.4133 7.21076 5.45768 7.21076C4.50194 7.21076 3.69425 6.67666 3.69425 6.04271C3.69425 5.40889 4.50194 4.87146 5.45768 4.87146V4.87467Z" fill="#353535"/>
<path d="M15.6605 9.3893H10.911V6.03952C10.911 3.83862 8.46238 2.04639 5.44093 2.04639C2.41937 2.04639 -0.0292969 3.83862 -0.0292969 6.03952V9.99742C-0.0292969 12.0246 2.04617 13.6978 4.72011 13.952H4.77486C4.9968 13.9714 5.22208 13.9875 5.45057 13.9875H15.6605C15.8381 13.9875 15.9823 13.8433 15.9823 13.6657V9.71097C15.9823 9.53344 15.8381 9.3893 15.6605 9.3893ZM5.457 2.69307C8.11155 2.69307 10.2836 4.19576 10.2836 6.04285C10.2836 7.88982 8.12452 9.39251 5.457 9.39251C2.78948 9.39251 0.630353 7.88982 0.630353 6.04273C0.630353 4.19576 2.80555 2.69307 5.457 2.69307ZM10.2836 7.91874V9.3893H8.41728C9.14578 9.05913 9.78133 8.55395 10.2675 7.91874H10.2836ZM15.3387 13.3439H14.6951V11.7156C14.6951 11.5381 14.5509 11.3938 14.3734 11.3938C14.1958 11.3938 14.0516 11.538 14.0516 11.7156V13.3471H12.7644V12.4622C12.7644 12.2845 12.6203 12.1404 12.4427 12.1404C12.265 12.1404 12.1209 12.2845 12.1209 12.4622V13.3471H10.8338V12.4622C10.8338 12.2845 10.6897 12.1404 10.512 12.1404C10.3344 12.1404 10.1902 12.2845 10.1902 12.4622V13.3471H8.90306V11.7156C8.90306 11.5381 8.75892 11.3938 8.58127 11.3938C8.40373 11.3938 8.25948 11.538 8.25948 11.7156V13.3471H7.02717V12.4622C7.02717 12.2845 6.88291 12.1404 6.70538 12.1404C6.52773 12.1404 6.38358 12.2845 6.38358 12.4622V13.3471H5.45677C5.33455 13.3471 5.21554 13.3471 5.09642 13.3471V12.4622C5.09642 12.2845 4.95228 12.1404 4.77463 12.1404C4.59698 12.1404 4.45283 12.2845 4.45283 12.4622V13.2698C2.28109 12.9481 0.64642 11.603 0.64642 9.99421V7.91874C1.56669 9.17687 3.37832 10.0328 5.47307 10.0328H15.3387V13.3439Z" fill="#353535"/>
</g>
<defs>
<clipPath id="clip0_22_23">
<rect width="16" height="16" fill="white"/>
</clipPath>
</defs>
</svg>
